<?xml version="1.0" encoding="utf-8"?>
<!-- Generator: Adobe Illustrator 15.0.2, SVG Export Plug-In . SVG Version: 6.00 Build 0)  -->
<!DOCTYPE svg PUBLIC "-//W3C//DTD SVG 1.1//EN" "http://www.w3.org/Graphics/SVG/1.1/DTD/svg11.dtd">
<svg version="1.1" xmlns="http://www.w3.org/2000/svg" xmlns:xlink="http://www.w3.org/1999/xlink" x="0px" y="0px" width="350px"
	 height="500px" viewBox="0 0 350 500" enable-background="new 0 0 350 500" xml:space="preserve">
<g id="logo">
	<g>
		<g>
			<path fill="none" stroke="#004595" stroke-width="8" stroke-miterlimit="10" d="M94.356,109.83
				c-16.296-2.386-28.554-17.753-28.554-35.035c0-19.75,16.011-35.761,35.761-35.761c7.788,0,14.994,2.489,20.866,6.715"/>
			<path fill="none" stroke="#004595" stroke-width="8" stroke-miterlimit="10" d="M102.423,84.646
				c0-30.129,21.111-45.612,40.861-45.612c13.786,0,31.716,3.396,31.716,13.03"/>
			<circle fill="none" stroke="#004595" stroke-width="8" stroke-miterlimit="10" cx="132.615" cy="97.258" r="10.186"/>
			<path fill="none" stroke="#004595" stroke-width="8" stroke-miterlimit="10" d="M175,107.444c-6.299,0-11.687-4.56-11.687-10.186
				s5.106-10.186,11.405-10.186"/>
			<circle fill="none" stroke="#004595" stroke-width="8" stroke-miterlimit="10" cx="90.574" cy="97.258" r="10.186"/>
			<line fill="none" stroke="#004595" stroke-width="8" stroke-miterlimit="10" x1="175" y1="24.913" x2="159.241" y2="24.913"/>
			<line fill="none" stroke="#004595" stroke-width="8" stroke-miterlimit="10" x1="175" y1="11.021" x2="175" y2="116.877"/>
			
				<line fill="none" stroke="#004595" stroke-width="10" stroke-linecap="round" stroke-miterlimit="10" x1="81.64" y1="87.874" x2="175" y2="87.874"/>
			<path fill="none" stroke="#004595" stroke-width="10" stroke-miterlimit="10" d="M154.336,87.874V61.84
				c0,0-29.779-6.649-29.779,26.034"/>
			<path fill="none" stroke="#004595" stroke-width="10" stroke-miterlimit="10" d="M90.574,107.444
				c0,22.922,42.041,25.199,42.041,0"/>
			<path fill="none" stroke="#004595" stroke-width="10" stroke-miterlimit="10" d="M132.615,107.444c0,22.922,41.41,25.199,41.41,0
				"/>
		</g>
		<g>
			<path fill="none" stroke="#004595" stroke-width="8" stroke-miterlimit="10" d="M255.645,109.83
				c16.296-2.386,28.555-17.753,28.555-35.035c0-19.75-16.011-35.761-35.762-35.761c-7.787,0-14.993,2.489-20.866,6.715"/>
			<path fill="none" stroke="#004595" stroke-width="8" stroke-miterlimit="10" d="M247.578,84.646
				c0-30.129-21.111-45.612-40.861-45.612c-13.786,0-31.716,3.396-31.716,13.03"/>
			<circle fill="none" stroke="#004595" stroke-width="8" stroke-miterlimit="10" cx="217.386" cy="97.258" r="10.186"/>
			<path fill="none" stroke="#004595" stroke-width="8" stroke-miterlimit="10" d="M175.001,107.444
				c6.3,0,11.688-4.56,11.688-10.186s-5.106-10.186-11.406-10.186"/>
			<circle fill="none" stroke="#004595" stroke-width="8" stroke-miterlimit="10" cx="259.427" cy="97.258" r="10.186"/>
			<line fill="none" stroke="#004595" stroke-width="8" stroke-miterlimit="10" x1="175.001" y1="24.913" x2="190.76" y2="24.913"/>
			<line fill="none" stroke="#004595" stroke-width="8" stroke-miterlimit="10" x1="175" y1="11.021" x2="175" y2="116.877"/>
			
				<line fill="none" stroke="#004595" stroke-width="10" stroke-linecap="round" stroke-miterlimit="10" x1="268.361" y1="87.874" x2="175" y2="87.874"/>
			<path fill="none" stroke="#004595" stroke-width="10" stroke-miterlimit="10" d="M195.665,87.874V61.84
				c0,0,29.779-6.649,29.779,26.034"/>
			<path fill="none" stroke="#004595" stroke-width="10" stroke-miterlimit="10" d="M259.427,107.444
				c0,22.922-42.041,25.199-42.041,0"/>
			<path fill="none" stroke="#004595" stroke-width="10" stroke-miterlimit="10" d="M217.386,107.444c0,22.922-41.41,25.199-41.41,0
				"/>
		</g>
	</g>
	<circle fill="#004595" cx="132.615" cy="139.861" r="4.829"/>
	<circle fill="#004595" cx="175.034" cy="134.169" r="4.829"/>
	<circle fill="#004595" cx="217.071" cy="139.802" r="4.828"/>
	<circle fill="none" stroke="#004595" stroke-width="8" stroke-miterlimit="10" cx="175.034" cy="294.82" r="104.13"/>
	<path fill="none" stroke="#004595" stroke-width="8" stroke-miterlimit="10" d="M175.034,366.95
		c-39.773,0-72.13-32.357-72.13-72.13s32.357-72.13,72.13-72.13c39.772,0,72.13,32.358,72.13,72.13S214.807,366.95,175.034,366.95z"
		/>
	<circle fill="none" stroke="#004595" stroke-width="8" stroke-miterlimit="10" cx="175.034" cy="294.82" r="14.034"/>
	<path fill="none" stroke="#004595" stroke-width="8" stroke-linecap="round" stroke-miterlimit="10" d="M190.72,298.323
		c4.051-2.23,8.687-3.503,13.613-3.503"/>
	<path fill="none" stroke="#004595" stroke-width="5" stroke-linecap="round" stroke-miterlimit="10" d="M179.063,310.16
		c2.661-4.986,6.725-9.121,11.656-11.837"/>
	<path fill="none" stroke="#004595" stroke-width="8" stroke-linecap="round" stroke-miterlimit="10" d="M219.207,351.583
		c-3.076,0.208-11.407,0.942-14.874,0.942c-15.846,0-28.691-12.846-28.691-28.691c0-4.921,1.239-9.584,3.422-13.674"/>
	
		<line fill="none" stroke="#004595" stroke-width="8" stroke-linecap="round" stroke-miterlimit="10" x1="204.189" y1="322.8" x2="232.213" y2="294.82"/>
	
		<line fill="none" stroke="#004595" stroke-width="8" stroke-linecap="round" stroke-miterlimit="10" x1="204.189" y1="322.8" x2="204.333" y2="294.82"/>
	
		<line fill="none" stroke="#004595" stroke-width="8" stroke-linecap="round" stroke-miterlimit="10" x1="204.189" y1="322.8" x2="184.92" y2="304.78"/>
	
		<line fill="none" stroke="#004595" stroke-width="8" stroke-linecap="round" stroke-miterlimit="10" x1="204.189" y1="322.8" x2="175.665" y2="322.8"/>
	
		<line fill="none" stroke="#004595" stroke-width="8" stroke-linecap="round" stroke-miterlimit="10" x1="204.189" y1="322.8" x2="183.471" y2="343.519"/>
	
		<line fill="none" stroke="#004595" stroke-width="8" stroke-linecap="round" stroke-miterlimit="10" x1="204.189" y1="322.8" x2="204.333" y2="352.525"/>
	
		<line fill="none" stroke="#004595" stroke-width="8" stroke-linecap="round" stroke-miterlimit="10" x1="204.189" y1="322.8" x2="226.595" y2="345.205"/>
	
		<line fill="none" stroke="#004595" stroke-width="8" stroke-linecap="round" stroke-miterlimit="10" x1="204.189" y1="322.8" x2="241.516" y2="322.8"/>
	
		<line fill="none" stroke="#004595" stroke-width="10" stroke-linecap="round" stroke-miterlimit="10" x1="191.375" y1="294.82" x2="246.067" y2="294.82"/>
	<path fill="none" stroke="#004595" stroke-width="8" stroke-miterlimit="10" d="M185.942,247.801
		c4.519,0,36.91,12.103,36.91,47.019"/>
	<line fill="none" stroke="#004595" stroke-width="8" stroke-miterlimit="10" x1="187.791" y1="271.311" x2="219.69" y2="238.215"/>
	<line fill="none" stroke="#004595" stroke-width="8" stroke-miterlimit="10" x1="217.382" y1="272.102" x2="189.068" y2="294.82"/>
	<line fill="none" stroke="#004595" stroke-width="10" stroke-miterlimit="10" x1="161" y1="294.82" x2="102.904" y2="294.82"/>
	
		<line fill="none" stroke="#004595" stroke-width="8" stroke-linecap="round" stroke-miterlimit="10" x1="147.544" y1="275.314" x2="147.544" y2="361.502"/>
	
		<line fill="none" stroke="#004595" stroke-width="8" stroke-linecap="round" stroke-miterlimit="10" x1="132.964" y1="294.82" x2="132.964" y2="353.41"/>
	<line fill="none" stroke="#004595" stroke-width="8" stroke-miterlimit="10" x1="117.563" y1="294.82" x2="117.563" y2="338.872"/>
	
		<line fill="none" stroke="#004595" stroke-width="8" stroke-linecap="round" stroke-miterlimit="10" x1="161" y1="294.82" x2="161" y2="348.009"/>
	<polyline fill="none" stroke="#004595" stroke-width="10" stroke-linecap="round" stroke-miterlimit="10" points="175.034,311.126 
		175.008,334.003 174.651,336.099 	"/>
	<path fill="none" stroke="#004595" stroke-width="8" stroke-linecap="round" stroke-miterlimit="10" d="M135.534,355.148
		c13.858,0,24.126,0.058,39.117-19.05"/>
	
		<line fill="none" stroke="#004595" stroke-width="10" stroke-miterlimit="10" x1="175.034" y1="222.69" x2="175.034" y2="280.786"/>
	<line fill="none" stroke="#004595" stroke-width="8" stroke-miterlimit="10" x1="132.964" y1="254.763" x2="161" y2="254.763"/>
	
		<line fill="none" stroke="#004595" stroke-width="8" stroke-miterlimit="10" x1="146.982" y1="228.368" x2="146.982" y2="254.763"/>
	<path fill="none" stroke="#004595" stroke-width="8" stroke-miterlimit="10" d="M131.952,237.003
		c1.012,5.561,3.682,39.133-7.407,39.338c0,5.955,0,18.479,0,18.479"/>
	<path fill="none" stroke="#004595" stroke-width="8" stroke-miterlimit="10" d="M161,238.968c0,3.696-0.411,24.027-0.206,28.134
		s6.469,13.076,10.337,14.238"/>
	<path fill="none" stroke="#004595" stroke-width="8" stroke-miterlimit="10" d="M107.999,164.506
		c20.088-10.354,42.879-16.201,67.035-16.201c24.598,0,47.78,6.062,68.134,16.772"/>
	<line fill="none" stroke="#004595" stroke-width="8" stroke-miterlimit="10" x1="130.72" y1="155.128" x2="143.828" y2="195.448"/>
	<line fill="none" stroke="#004595" stroke-width="8" stroke-miterlimit="10" x1="156.111" y1="149.518" x2="160.737" y2="190.69"/>
	
		<line fill="none" stroke="#004595" stroke-width="8" stroke-miterlimit="10" x1="195.307" y1="149.697" x2="187.791" y2="191.465"/>
	
		<line fill="none" stroke="#004595" stroke-width="8" stroke-miterlimit="10" x1="221.127" y1="155.703" x2="206.241" y2="195.448"/>
	<path fill="none" stroke="#004595" stroke-width="8" stroke-miterlimit="10" d="M71.845,163.142
		c4.315-1.66,24.1-14.988,26.158-19.838c3.818,8.619,28.849,59.182,28.849,59.182"/>
	<path fill="none" stroke="#004595" stroke-width="8" stroke-miterlimit="10" d="M276.632,161.551
		c-4.315-1.66-22.509-13.397-24.566-18.247c-3.817,8.619-28.849,59.182-28.849,59.182"/>
	<line fill="none" stroke="#004595" stroke-width="8" stroke-miterlimit="10" x1="161" y1="398.009" x2="153.528" y2="460.819"/>
	<line fill="none" stroke="#004595" stroke-width="8" stroke-miterlimit="10" x1="143.46" y1="394.074" x2="126.177" y2="453.689"/>
	<line fill="none" stroke="#004595" stroke-width="8" stroke-miterlimit="10" x1="126.177" y1="386.793" x2="99.214" y2="441.764"/>
	<line fill="none" stroke="#004595" stroke-width="8" stroke-miterlimit="10" x1="111.383" y1="376.924" x2="73.677" y2="426.339"/>
	<line fill="none" stroke="#004595" stroke-width="8" stroke-miterlimit="10" x1="92.774" y1="356.987" x2="45.03" y2="395.102"/>
	<line fill="none" stroke="#004595" stroke-width="8" stroke-miterlimit="10" x1="82.712" y1="343.519" x2="34.269" y2="365.934"/>
	<line fill="none" stroke="#004595" stroke-width="8" stroke-miterlimit="10" x1="75.454" y1="325.351" x2="28.314" y2="338.872"/>
	<line fill="none" stroke="#004595" stroke-width="8" stroke-miterlimit="10" x1="73.677" y1="304.78" x2="28.438" y2="313.117"/>
	<line fill="none" stroke="#004595" stroke-width="8" stroke-miterlimit="10" x1="28.438" y1="275.314" x2="71.845" y2="283.461"/>
	<line fill="none" stroke="#004595" stroke-width="8" stroke-miterlimit="10" x1="30.771" y1="250.643" x2="76.048" y2="262.423"/>
	<line fill="none" stroke="#004595" stroke-width="8" stroke-miterlimit="10" x1="37.511" y1="219.844" x2="82.712" y2="246.621"/>
	<line fill="none" stroke="#004595" stroke-width="8" stroke-miterlimit="10" x1="47.881" y1="197.878" x2="92.53" y2="231.287"/>
	<circle fill="none" stroke="#004595" stroke-width="8" stroke-miterlimit="10" cx="175.034" cy="294.82" r="104.13"/>
	<line fill="none" stroke="#004595" stroke-width="8" stroke-miterlimit="10" x1="189.068" y1="398.009" x2="196.54" y2="460.819"/>
	
		<line fill="none" stroke="#004595" stroke-width="8" stroke-miterlimit="10" x1="206.608" y1="394.074" x2="223.892" y2="453.689"/>
	
		<line fill="none" stroke="#004595" stroke-width="8" stroke-miterlimit="10" x1="223.892" y1="386.793" x2="250.854" y2="441.764"/>
	
		<line fill="none" stroke="#004595" stroke-width="8" stroke-miterlimit="10" x1="238.686" y1="376.924" x2="276.392" y2="426.339"/>
	
		<line fill="none" stroke="#004595" stroke-width="8" stroke-miterlimit="10" x1="257.294" y1="356.987" x2="305.038" y2="395.102"/>
	<line fill="none" stroke="#004595" stroke-width="8" stroke-miterlimit="10" x1="267.355" y1="343.519" x2="315.8" y2="365.934"/>
	
		<line fill="none" stroke="#004595" stroke-width="8" stroke-miterlimit="10" x1="274.614" y1="325.351" x2="321.754" y2="338.872"/>
	<line fill="none" stroke="#004595" stroke-width="8" stroke-miterlimit="10" x1="276.392" y1="304.78" x2="321.631" y2="313.117"/>
	
		<line fill="none" stroke="#004595" stroke-width="8" stroke-miterlimit="10" x1="321.631" y1="275.314" x2="278.223" y2="283.461"/>
	
		<line fill="none" stroke="#004595" stroke-width="8" stroke-miterlimit="10" x1="319.298" y1="250.643" x2="274.021" y2="262.423"/>
	
		<line fill="none" stroke="#004595" stroke-width="8" stroke-miterlimit="10" x1="312.557" y1="219.844" x2="267.355" y2="246.621"/>
	
		<line fill="none" stroke="#004595" stroke-width="8" stroke-miterlimit="10" x1="302.187" y1="197.878" x2="257.538" y2="231.287"/>
	<polyline fill="none" stroke="#004595" stroke-width="8" stroke-miterlimit="10" points="238.474,212.248 284.266,152.956 
		309.187,162.29 312.298,190.69 302.187,197.878 312.557,219.844 323.964,230.474 319.298,250.643 321.631,275.314 334.853,272.102 
		339.52,294.82 333.297,315.251 321.631,313.117 321.631,337.663 323.705,358.028 309.705,372.028 305.038,395.102 313.075,400.806 
		308.409,428.024 284.266,436.839 276.392,426.339 250.854,441.764 242.558,454.987 223.892,453.689 196.54,460.819 196.54,470.541 
		175,482.985 153.528,470.541 153.528,460.819 126.177,453.689 107.51,454.987 99.214,441.764 73.677,426.339 65.802,436.839 
		41.659,428.024 36.993,400.806 45.03,395.102 40.363,372.028 26.363,358.028 28.438,337.663 28.438,313.117 16.771,315.251 
		10.549,294.82 15.215,272.102 28.438,275.314 30.771,250.643 26.104,230.474 37.511,219.844 47.881,197.878 37.771,190.69 
		40.882,162.29 65.802,152.956 111.595,212.248 	"/>
</g>
<g id="btmtxt">
	<g>
		<path fill="#004595" d="M140.211,382.795l4.151-12.197l4.602,1.565c0.81,0.276,1.415,0.525,1.815,0.748
			c0.565,0.304,1.002,0.665,1.312,1.083s0.502,0.921,0.577,1.51c0.075,0.589,0.01,1.186-0.196,1.79
			c-0.353,1.037-0.982,1.803-1.886,2.297c-0.905,0.493-2.219,0.446-3.944-0.141l-3.128-1.064l-1.688,4.959L140.211,382.795z
			 M144.003,376.946l3.153,1.073c1.043,0.354,1.85,0.412,2.42,0.174c0.57-0.239,0.975-0.711,1.215-1.416
			c0.174-0.51,0.193-0.991,0.06-1.442c-0.135-0.45-0.393-0.807-0.774-1.066c-0.248-0.164-0.737-0.371-1.469-0.62l-3.12-1.063
			L144.003,376.946z"/>
		<path fill="#004595" d="M153.168,380.514c0.381-2.104,1.245-3.649,2.591-4.636c1.346-0.985,2.913-1.316,4.7-0.992
			c1.17,0.212,2.175,0.683,3.013,1.412s1.414,1.64,1.725,2.729c0.312,1.089,0.353,2.269,0.123,3.537
			c-0.233,1.285-0.701,2.389-1.403,3.31c-0.703,0.92-1.577,1.556-2.623,1.904c-1.046,0.35-2.12,0.425-3.221,0.225
			c-1.193-0.216-2.208-0.697-3.043-1.444c-0.835-0.747-1.405-1.663-1.708-2.748C153.018,382.726,152.966,381.626,153.168,380.514z
			 M154.893,380.853c-0.277,1.528-0.084,2.807,0.578,3.834c0.662,1.028,1.613,1.655,2.853,1.88c1.263,0.229,2.382-0.027,3.359-0.767
			c0.977-0.74,1.613-1.926,1.909-3.558c0.187-1.032,0.176-1.965-0.033-2.798c-0.209-0.833-0.611-1.521-1.207-2.067
			c-0.595-0.546-1.31-0.895-2.146-1.046c-1.188-0.215-2.284,0.008-3.288,0.668C155.914,377.66,155.239,378.944,154.893,380.853z"/>
		<path fill="#004595" d="M167.192,389.048l0.559-12.872l1.703,0.074l-0.492,11.354l6.34,0.274l-0.066,1.52L167.192,389.048z"/>
		<path fill="#004595" d="M178.089,389.253l-0.521-12.875l1.704-0.068l0.52,12.874L178.089,389.253z"/>
		<path fill="#004595" d="M191.935,383.29l1.749,0.185c-0.155,1.438-0.641,2.586-1.456,3.445c-0.814,0.859-1.887,1.384-3.215,1.574
			c-1.375,0.197-2.532,0.077-3.475-0.359c-0.941-0.437-1.713-1.153-2.313-2.15c-0.602-0.997-0.99-2.104-1.164-3.323
			c-0.19-1.328-0.103-2.522,0.264-3.584s0.98-1.916,1.844-2.563s1.857-1.052,2.983-1.213c1.275-0.183,2.396-0.012,3.358,0.514
			s1.699,1.352,2.21,2.48l-1.605,0.629c-0.429-0.886-0.954-1.5-1.577-1.843c-0.624-0.343-1.361-0.453-2.214-0.331
			c-0.98,0.141-1.767,0.492-2.357,1.057c-0.591,0.563-0.964,1.261-1.117,2.091s-0.17,1.665-0.049,2.507
			c0.155,1.084,0.448,2.009,0.88,2.772c0.433,0.764,1.011,1.298,1.734,1.603c0.725,0.305,1.476,0.401,2.253,0.29
			c0.945-0.135,1.707-0.522,2.284-1.161S191.856,384.396,191.935,383.29z"/>
		<path fill="#004595" d="M197.205,386.684l-3.123-12.5l1.654-0.413l3.123,12.5L197.205,386.684z"/>
		<path fill="#004595" d="M201.058,385.87l0.339-13.798l1.73-0.616l9.29,10.369l-1.83,0.651l-2.725-3.172l-5.075,1.808l-0.024,4.15
			L201.058,385.87z M202.784,379.639l4.115-1.466l-2.464-2.91c-0.75-0.884-1.336-1.62-1.758-2.21
			c0.123,0.833,0.18,1.684,0.172,2.551L202.784,379.639z"/>
	</g>
</g>
<g id="toptext">
	<g>
		<path fill="#004595" d="M95.077,262.538l0.969-1.467c1.204,0.8,2,1.759,2.387,2.878c0.388,1.12,0.36,2.313-0.083,3.579
			c-0.458,1.311-1.098,2.284-1.919,2.919s-1.813,0.989-2.975,1.063c-1.162,0.075-2.324-0.091-3.485-0.496
			c-1.267-0.443-2.287-1.071-3.061-1.885c-0.774-0.814-1.25-1.753-1.427-2.817s-0.078-2.133,0.297-3.206
			c0.425-1.217,1.093-2.132,2.002-2.745c0.909-0.613,1.982-0.887,3.219-0.82l-0.181,1.715c-0.983-0.027-1.771,0.157-2.362,0.553
			s-1.029,0.999-1.313,1.813c-0.327,0.935-0.376,1.794-0.147,2.578c0.229,0.785,0.676,1.437,1.342,1.954
			c0.666,0.519,1.4,0.918,2.202,1.198c1.035,0.362,1.99,0.527,2.867,0.495c0.877-0.031,1.617-0.299,2.222-0.802
			c0.604-0.502,1.035-1.124,1.294-1.865c0.315-0.901,0.322-1.756,0.021-2.563C96.646,263.811,96.022,263.117,95.077,262.538z"/>
		<path fill="#004595" d="M93.345,247.214l0.807-1.502l6.558,3.523c1.141,0.613,1.977,1.229,2.509,1.847
			c0.532,0.619,0.828,1.378,0.887,2.277c0.059,0.9-0.206,1.896-0.794,2.991c-0.571,1.063-1.222,1.834-1.952,2.313
			c-0.73,0.479-1.52,0.677-2.369,0.593s-1.875-0.449-3.078-1.095l-6.558-3.524l0.807-1.502l6.55,3.52
			c0.986,0.53,1.762,0.829,2.327,0.896c0.565,0.068,1.095-0.054,1.587-0.364c0.493-0.311,0.913-0.788,1.259-1.434
			c0.594-1.104,0.766-2.026,0.518-2.765s-1.085-1.491-2.509-2.256L93.345,247.214z"/>
		<path fill="#004595" d="M106.941,249.624l-10.313-7.724l5.585-7.457l1.217,0.912l-4.563,6.092l3.158,2.366l4.273-5.705l1.21,0.906
			l-4.273,5.705l3.51,2.629l4.742-6.331l1.217,0.912L106.941,249.624z"/>
		<path fill="#004595" d="M114.133,240.287l-9.046-9.175l4.068-4.011c0.817-0.806,1.521-1.337,2.108-1.591
			c0.588-0.255,1.215-0.299,1.881-0.133c0.666,0.166,1.248,0.502,1.745,1.007c0.642,0.651,0.972,1.407,0.991,2.269
			c0.019,0.862-0.353,1.788-1.114,2.776c0.474-0.162,0.868-0.25,1.183-0.265c0.676-0.024,1.413,0.052,2.211,0.227l4.058,0.924
			l-1.527,1.505l-3.096-0.711c-0.898-0.201-1.605-0.334-2.123-0.4c-0.517-0.066-0.924-0.068-1.221-0.006
			c-0.296,0.063-0.562,0.163-0.794,0.302c-0.167,0.106-0.406,0.314-0.719,0.623l-1.408,1.388l4.017,4.075L114.133,240.287z
			 M110.293,233.964l2.61-2.573c0.555-0.547,0.933-1.032,1.132-1.456s0.256-0.841,0.17-1.254c-0.086-0.413-0.275-0.767-0.567-1.063
			c-0.428-0.434-0.937-0.635-1.528-0.604c-0.59,0.031-1.226,0.382-1.906,1.053l-2.904,2.863L110.293,233.964z"/>
		<path fill="#004595" d="M123.354,231.514l-7.581-10.419l3.93-2.859c0.692-0.503,1.244-0.854,1.657-1.054
			c0.574-0.287,1.121-0.437,1.641-0.449c0.52-0.012,1.042,0.121,1.567,0.398c0.524,0.278,0.975,0.675,1.35,1.191
			c0.645,0.886,0.909,1.841,0.791,2.865c-0.117,1.024-0.913,2.072-2.386,3.144l-2.672,1.944l3.082,4.236L123.354,231.514z
			 M120.756,225.046l2.694-1.96c0.891-0.648,1.402-1.274,1.535-1.878c0.133-0.604-0.019-1.207-0.457-1.809
			c-0.317-0.436-0.699-0.729-1.145-0.879c-0.446-0.15-0.885-0.144-1.318,0.019c-0.277,0.107-0.728,0.388-1.354,0.843l-2.665,1.939
			L120.756,225.046z"/>
		<path fill="#004595" d="M129.605,219.344c-0.974-1.904-1.226-3.656-0.755-5.256c0.471-1.6,1.516-2.814,3.132-3.642
			c1.059-0.542,2.143-0.777,3.252-0.706c1.109,0.071,2.119,0.445,3.027,1.122c0.909,0.677,1.657,1.589,2.245,2.736
			c0.595,1.163,0.893,2.324,0.893,3.482c0,1.159-0.309,2.194-0.928,3.106s-1.427,1.624-2.423,2.133
			c-1.08,0.552-2.178,0.786-3.295,0.699c-1.117-0.086-2.125-0.469-3.025-1.147S130.121,220.351,129.605,219.344z M131.182,218.567
			c0.708,1.382,1.636,2.281,2.787,2.696s2.286,0.335,3.408-0.238c1.142-0.584,1.877-1.467,2.204-2.648
			c0.327-1.181,0.113-2.509-0.643-3.985c-0.478-0.934-1.053-1.668-1.725-2.203c-0.672-0.535-1.41-0.838-2.213-0.911
			c-0.804-0.073-1.584,0.085-2.34,0.472c-1.075,0.55-1.811,1.392-2.208,2.526C130.056,215.41,130.299,216.841,131.182,218.567z"/>
		<path fill="#004595" d="M150.184,216.911l-3.128-12.499l1.697-0.425l9.021,8.171l-2.456-9.813l1.586-0.397l3.128,12.499
			l-1.697,0.425l-9.023-8.179l2.458,9.822L150.184,216.911z"/>
		<path fill="#004595" d="M161.229,214.167l3.71-13.294l1.829-0.173l6.466,12.33l-1.934,0.183l-1.865-3.743l-5.363,0.508
			l-1.041,4.019L161.229,214.167z M164.431,208.548l4.349-0.412l-1.675-3.426c-0.511-1.04-0.898-1.898-1.162-2.574
			c-0.085,0.838-0.239,1.677-0.459,2.516L164.431,208.548z"/>
		<path fill="#004595" d="M183.819,209.059l1.679,0.521c-0.432,1.379-1.132,2.411-2.099,3.096c-0.967,0.684-2.12,0.99-3.46,0.918
			c-1.387-0.075-2.499-0.417-3.338-1.029c-0.838-0.611-1.456-1.464-1.851-2.56c-0.396-1.095-0.561-2.257-0.494-3.486
			c0.072-1.34,0.391-2.495,0.957-3.465c0.565-0.97,1.335-1.688,2.308-2.155s2.026-0.67,3.162-0.608
			c1.287,0.069,2.352,0.455,3.194,1.158c0.842,0.703,1.404,1.657,1.686,2.863l-1.698,0.305c-0.248-0.952-0.644-1.657-1.188-2.115
			c-0.545-0.458-1.247-0.71-2.106-0.756c-0.989-0.053-1.828,0.139-2.518,0.578c-0.69,0.438-1.191,1.049-1.503,1.833
			c-0.313,0.784-0.491,1.6-0.537,2.449c-0.059,1.094,0.049,2.058,0.324,2.891c0.274,0.833,0.738,1.47,1.389,1.91
			c0.651,0.44,1.369,0.681,2.153,0.723c0.953,0.051,1.775-0.18,2.467-0.694C183.035,210.92,183.526,210.128,183.819,209.059z"/>
		<path fill="#004595" d="M187.637,214.192l2.101-12.712l1.683,0.278l-2.101,12.712L187.637,214.192z"/>
		<path fill="#004595" d="M193.523,208.684c0.592-2.055,1.607-3.505,3.046-4.349c1.438-0.845,3.03-1.016,4.776-0.513
			c1.143,0.33,2.095,0.9,2.854,1.71c0.761,0.811,1.24,1.773,1.44,2.889s0.121,2.292-0.235,3.531
			c-0.362,1.255-0.939,2.306-1.731,3.15c-0.793,0.845-1.727,1.389-2.803,1.63c-1.075,0.242-2.151,0.208-3.227-0.103
			c-1.165-0.336-2.126-0.917-2.881-1.745c-0.756-0.827-1.229-1.796-1.422-2.907S193.21,209.771,193.523,208.684z M195.205,209.196
			c-0.43,1.492-0.368,2.783,0.188,3.873c0.555,1.09,1.438,1.81,2.647,2.158c1.233,0.355,2.373,0.214,3.42-0.423
			c1.046-0.638,1.799-1.753,2.259-3.346c0.29-1.008,0.373-1.937,0.249-2.787c-0.124-0.85-0.454-1.576-0.991-2.179
			c-0.536-0.603-1.213-1.022-2.029-1.257c-1.16-0.334-2.272-0.224-3.338,0.332S195.742,207.333,195.205,209.196z"/>
		<path fill="#004595" d="M205.353,218.873l5.527-11.639l1.579,0.75l1.774,12.041l4.34-9.138l1.477,0.701l-5.527,11.639l-1.579-0.75
			l-1.771-12.049l-4.344,9.146L205.353,218.873z"/>
		<path fill="#004595" d="M215.599,223.755l11.307-7.915l1.523,1.027l-2.833,13.631l-1.61-1.086l0.936-4.076l-4.467-3.013
			l-3.354,2.444L215.599,223.755z M221.639,221.448l3.622,2.442l0.88-3.71c0.267-1.128,0.512-2.037,0.736-2.727
			c-0.598,0.593-1.248,1.144-1.951,1.652L221.639,221.448z"/>
		<path fill="#004595" d="M226.429,231.342l8.556-9.634l1.275,1.132l-7.546,8.497l4.745,4.214l-1.01,1.137L226.429,231.342z"/>
		<path fill="#004595" d="M233.84,238.077l9.754-8.418l6.087,7.053l-1.151,0.994l-4.973-5.763l-2.987,2.579l4.657,5.396
			l-1.145,0.988l-4.657-5.396l-3.32,2.866l5.168,5.988l-1.151,0.994L233.84,238.077z"/>
		<path fill="#004595" d="M244.357,251.47l11.324-6.146l2.117,3.901c0.479,0.88,0.789,1.582,0.933,2.104
			c0.203,0.729,0.232,1.43,0.09,2.101c-0.181,0.871-0.583,1.668-1.207,2.391c-0.625,0.723-1.441,1.357-2.451,1.905
			c-0.86,0.467-1.677,0.78-2.45,0.939c-0.773,0.16-1.463,0.201-2.068,0.123s-1.135-0.236-1.587-0.474
			c-0.452-0.238-0.887-0.586-1.302-1.044s-0.809-1.029-1.181-1.714L244.357,251.47z M246.508,252.243l1.312,2.418
			c0.405,0.746,0.793,1.295,1.163,1.645c0.369,0.349,0.749,0.581,1.138,0.696c0.549,0.163,1.177,0.181,1.884,0.053
			c0.708-0.127,1.489-0.423,2.344-0.887c1.185-0.643,1.989-1.331,2.414-2.065c0.425-0.733,0.595-1.438,0.509-2.111
			c-0.063-0.485-0.337-1.174-0.82-2.064l-1.291-2.379L246.508,252.243z"/>
		<path fill="#004595" d="M250.249,262.812l12.119-4.374l3.163,8.764l-1.431,0.516l-2.583-7.159l-3.712,1.34l2.419,6.705
			l-1.422,0.513l-2.419-6.704l-4.126,1.488l2.686,7.44l-1.431,0.517L250.249,262.812z"/>
	</g>
</g>
</svg>
